<svg xmlns="http://www.w3.org/2000/svg" viewBox="-655.1482 373.1306 818.4879 478.2667" width="90" height="40">
    <path style="fill: rgb(255, 255, 255); transform-origin: -245.908173px 623.889816px;" d="M 156.741 603.883 C 155.718 604.165 154.694 604.442 153.673 604.728 C 153.411 604.801 152.831 605.011 152.395 605.163 C 152.409 605.42 152.421 605.676 152.436 605.933 C 152.553 608.079 152.597 609.972 151.586 611.955 C 151.521 612.083 151.308 612.548 151.124 612.877 C 151.148 612.941 151.161 612.976 151.191 613.054 C 151.586 614.08 152.409 615.446 152.796 616.673 C 153.345 618.409 153.245 620.341 153.348 622.133 C 153.581 626.193 153.817 630.251 154.052 634.31 C 154.241 637.571 155.006 641.229 152.626 643.848 C 152.651 643.934 152.677 644.021 152.701 644.076 C 153.144 645.081 153.865 646.459 154.347 647.663 C 155.628 650.859 155.226 654.84 155.41 658.2 C 155.638 662.361 155.859 666.522 156.069 670.684 C 156.118 671.673 155.862 672.481 155.428 673.133 C 155.318 674.222 154.848 675.287 154.064 676.018 C 152.752 677.239 151.084 677.515 149.519 677.131 C 111.584 697.341 66.635 703.896 23.434 703.718 C -17.684 703.549 -59.41 697.605 -98.532 685.737 C -108.98 682.569 -119.5 678.974 -129.49 674.48 C -106.35 706.765 -84.932 740.126 -65.188 774.304 C -58.701 785.533 -52.403 796.857 -46.292 808.269 C -45.975 808.861 -45.819 809.442 -45.767 810.006 C -44.924 811.417 -44.909 813.35 -45.737 814.665 C -47.188 816.975 -49.963 817.263 -52.376 816.286 C -78.232 805.807 -103.62 794.335 -128.58 782.124 C -134.14 779.402 -139.67 776.616 -145.19 773.824 C -144.45 788.014 -143.19 802.185 -143.17 816.397 C -143.17 817.526 -143.54 818.43 -144.13 819.121 C -145.31 821.165 -147.87 822.416 -150.54 820.748 C -169.27 809.03 -189.08 799.102 -209.45 790.23 C -211.29 806.131 -214.84 821.828 -220.2 837.039 C -220.95 839.192 -223.61 841.097 -226.17 840.194 C -240.98 834.958 -255.61 829.257 -270.15 823.381 C -273.51 832.274 -277.7 840.891 -282.68 849.104 C -283.63 850.67 -286.22 851.915 -288.16 851.18 C -332.9 834.151 -377.01 815.674 -420.33 795.716 C -463.28 775.932 -505.47 754.72 -546.79 732.13 C -570.18 719.344 -593.28 706.111 -616.1 692.456 C -618.81 690.833 -619.24 687.572 -617.08 685.361 C -602.21 670.142 -587.61 654.704 -573.22 639.095 C -592.13 626.675 -613.48 617.928 -633.37 606.993 C -636.66 607.111 -640.18 603.805 -638.12 600.2 C -635.78 596.126 -634.3 591.324 -633.39 586.256 C -632.48 581.191 -632.32 575.063 -632.69 569.52 C -633.41 559.009 -636.16 547.905 -642.13 538.952 C -644.89 534.804 -648.02 531.588 -652.79 529.511 C -654.62 528.714 -655.39 526.642 -655.08 524.832 C -655.31 522.88 -654.31 520.891 -651.63 520.343 C -637.48 517.452 -623.36 514.466 -609.24 511.46 C -590.81 507.537 -572.4 503.566 -553.99 499.576 C -532.46 494.91 -510.93 490.215 -489.4 485.508 C -471.04 481.491 -452.68 477.459 -434.32 473.427 C -433.55 473.04 -432.7 472.848 -431.83 472.881 C -427.5 471.93 -423.17 470.984 -418.84 470.032 C -394.77 464.742 -370.7 459.444 -346.63 454.144 C -323.03 448.948 -299.43 443.749 -275.83 438.553 C -254.16 433.781 -232.48 429.013 -210.79 424.257 C -192.07 420.15 -173.35 416.052 -154.62 411.98 C -140.27 408.858 -125.91 405.747 -111.54 402.688 C -102.66 400.797 -93.772 398.893 -84.855 397.152 C -83.672 396.921 -82.489 396.695 -81.303 396.48 C -78.724 396.011 -76.78 397.303 -75.845 399.027 C -43.661 424.138 -12.248 450.067 18.728 476.456 C 47.454 500.928 75.938 525.644 105.04 549.731 C 123.753 565.219 142.704 580.455 161.9 595.422 C 163.403 596.593 163.829 599.394 162.659 600.897 C 161.164 602.82 159.037 603.249 156.741 603.883 Z M -402.25 477.445 C -402.24 477.399 -402.24 477.355 -402.23 477.308 C -402.05 476.721 -401.71 476.163 -401.26 475.669 C -401.3 475.604 -401.34 475.539 -401.37 475.472 C -402.29 475.675 -403.21 475.876 -404.13 476.079 C -403.4 476.382 -402.75 476.832 -402.25 477.445 Z M -389.41 472.841 C -387.8 473.5 -386.18 474.131 -384.57 474.773 C -384.49 474.658 -384.39 474.566 -384.29 474.466 C -385.79 473.888 -387.29 473.319 -388.77 472.7 C -388.98 472.747 -389.2 472.794 -389.41 472.841 Z M 145.442 637.893 C 145.989 637.504 146.002 637.487 145.451 637.864 C 145.448 637.875 145.446 637.882 145.442 637.893 Z M 152.67 604.927 C 152.773 604.831 152.877 604.735 152.98 604.639 C 152.789 604.766 152.589 604.878 152.385 604.981 C 152.386 605.007 152.388 605.031 152.389 605.057 C 152.483 605.014 152.544 604.984 152.67 604.927 Z M 150.871 613.213 C 150.936 613.215 150.966 613.163 150.984 613.093 C 150.941 613.15 150.896 613.214 150.871 613.213 Z M 152.179 642.731 C 152.227 642.773 152.267 642.852 152.307 642.929 C 152.282 642.855 152.242 642.787 152.179 642.731 Z" transform="matrix(-1, 0, 0, -1, 0.000183105469, 0.000030517579)"/>
    <path style="fill: oklch(0.444 0.177 26.899); transform-origin: -126.648193px 785.000206px;" d="M -413.11 842.564 C -398.96 839.672 -384.84 836.687 -370.72 833.681 C -352.29 829.758 -333.87 825.786 -315.47 821.797 C -293.93 817.13 -272.41 812.436 -250.88 807.728 C -227.36 802.583 -203.84 797.422 -180.32 792.253 C -156.24 786.963 -132.18 781.665 -108.11 776.365 C -84.507 771.168 -60.907 765.969 -37.307 760.774 C -15.627 756.002 6.053 751.233 27.733 746.478 C 46.453 742.371 65.173 738.273 83.903 734.201 C 98.263 731.079 112.613 727.967 126.983 724.909 C 135.873 723.018 144.752 721.115 153.669 719.374 C 154.851 719.143 156.035 718.916 157.221 718.7 C 163.321 717.593 165.934 726.299 159.8 727.412 C 152.41 728.754 145.069 730.344 137.723 731.892 C 124.583 734.662 111.453 737.496 98.333 740.34 C 80.623 744.177 62.923 748.044 45.233 751.92 C 24.083 756.551 2.943 761.198 -18.197 765.849 C -41.357 770.944 -64.517 776.046 -87.677 781.146 C -111.84 786.465 -135.99 791.784 -160.14 797.096 C -183.83 802.306 -207.52 807.509 -231.21 812.699 C -253.41 817.562 -275.62 822.414 -297.83 827.242 C -317.12 831.432 -336.4 835.605 -355.7 839.737 C -371 843.013 -386.31 846.268 -401.63 849.444 C -404.6 850.059 -407.56 850.669 -410.53 851.276 C -416.62 852.521 -419.22 843.812 -413.11 842.564 Z" transform="matrix(-1, 0, 0, -1, 0, 0.000076293946)"/>
    <path style="fill: oklch(0.444 0.177 26.899); transform-origin: -530.953911px 746.502983px;" d="M -646.88 643.513 C -614.36 668.852 -582.64 695.037 -551.36 721.684 C -522.64 746.156 -494.15 770.873 -465.05 794.959 C -446.34 810.447 -427.39 825.683 -408.19 840.65 C -406.69 841.821 -406.26 844.621 -407.43 846.125 C -408.93 848.046 -411.06 848.475 -413.35 849.109 C -414.38 849.391 -415.4 849.668 -416.42 849.954 C -417.04 850.127 -419.49 851.086 -417.43 850.153 C -416.84 849.613 -416.26 849.073 -415.68 848.533 C -415.69 848.54 -415.69 848.547 -415.7 848.553 C -417.23 850.528 -419.92 851.491 -422.34 850.174 C -424.43 849.033 -425.62 845.981 -424.08 843.993 C -422.59 842.071 -420.45 841.642 -418.16 841.009 C -417.14 840.727 -416.11 840.45 -415.09 840.165 C -414.47 839.992 -412.03 839.033 -414.09 839.965 C -414.67 840.505 -415.25 841.045 -415.83 841.586 C -415.82 841.579 -415.82 841.571 -415.81 841.565 C -415.56 843.39 -415.31 845.215 -415.06 847.04 C -447.53 821.718 -479.21 795.551 -510.46 768.927 C -539.19 744.445 -567.69 719.723 -596.8 695.635 C -615.54 680.132 -634.52 664.882 -653.74 649.901 C -655.75 648.334 -655.48 645.13 -653.74 643.513 C -651.75 641.659 -648.89 641.942 -646.88 643.513 Z" transform="matrix(-1, 0, 0, -1, -0.000137329102, 0.000015258788)"/>
    <path style="fill: oklch(0.444 0.177 26.899); transform-origin: -220.088211px 678.792px;" d="M -344.62 583.957 C -326.06 590.639 -311.18 603.702 -295.89 615.153 C -279.47 627.454 -262.96 639.646 -246.4 651.788 C -213.04 676.253 -179.51 700.513 -146.18 725.009 C -127.64 738.632 -109.16 752.328 -90.816 766.18 C -88.786 767.717 -89.106 770.969 -90.816 772.568 C -92.836 774.443 -95.636 774.11 -97.686 772.568 C -130.01 748.157 -162.75 724.224 -195.52 700.333 C -228.58 676.225 -261.7 652.168 -294.48 627.724 C -303.29 621.153 -312.02 614.48 -320.86 607.936 C -328.92 601.96 -337.51 596.156 -347.2 592.669 C -349.64 591.79 -351.33 589.634 -350.59 587.112 C -349.95 584.938 -347.07 583.071 -344.62 583.957 Z" transform="matrix(-1, 0, 0, -1, 0.000030517578, 0.000106811524)"/>
    <path style="fill: oklch(0.444 0.177 26.899); transform-origin: -494.767487px 566.844604px;" d="M -637.34 544.802 C -625.09 552.192 -612.71 556.834 -599.29 561.175 C -581.62 566.889 -563.39 571.147 -545 574.315 C -503.5 581.463 -459.92 583.366 -418.24 576.359 C -395.21 572.485 -372.63 565.788 -352.31 554.833 C -346.89 551.913 -342 559.718 -347.41 562.634 C -385.51 583.176 -430.79 589.807 -474.29 589.627 C -515.41 589.459 -557.13 583.514 -596.26 571.646 C -612.11 566.834 -628.18 561.087 -642.24 552.604 C -647.46 549.452 -642.6 541.628 -637.34 544.802 Z" transform="matrix(-1, 0, 0, -1, 0, 2e-12)"/>
    <path style="fill: oklch(0.444 0.177 26.899); transform-origin: 147.14398px 683.690685px;" d="M 138.215 641.312 C 149.085 646.041 155.285 657.247 158.825 667.367 C 163.005 679.313 164.335 692.486 162.595 704.943 C 161.645 711.709 159.835 718.31 156.375 724.363 C 153.435 729.496 145.055 724.937 147.995 719.803 C 150.325 715.729 151.805 710.927 152.715 705.858 C 153.625 700.794 153.795 694.665 153.415 689.122 C 152.705 678.612 149.945 667.508 143.985 658.555 C 141.215 654.407 138.095 651.191 133.315 649.114 C 130.945 648.081 130.335 644.901 131.575 642.933 C 132.995 640.667 135.835 640.275 138.215 641.312 Z" transform="matrix(-1, 0, 0, -1, 0.000003814697, -0.000144958496)"/>
    <path style="fill: oklch(0.444 0.177 26.899); transform-origin: -412.434998px 791.612183px;" d="M -417.29 839.284 C -417.29 807.503 -417.29 775.721 -417.29 743.94 C -417.29 738.127 -407.58 738.118 -407.58 743.94 C -407.58 775.721 -407.58 807.503 -407.58 839.284 C -407.58 845.097 -417.29 845.107 -417.29 839.284 Z" transform="matrix(-1, 0, 0, -1, 0, -1.5e-11)"/>
    <path style="fill: oklch(0.444 0.177 26.899); transform-origin: -529.006363px 655.71138px;" d="M -640 571.14 C -610.57 591.686 -581.03 612.085 -551.6 632.627 C -520.33 654.449 -489.16 676.393 -458.37 698.799 C -442.82 710.122 -427.36 721.566 -412.13 733.272 C -410.11 734.827 -410.4 738.051 -412.13 739.661 C -414.13 741.523 -416.97 741.219 -419 739.661 C -446.95 718.173 -475.62 697.502 -504.44 677.037 C -535.31 655.115 -566.41 633.483 -597.54 611.872 C -613.33 600.905 -629.13 589.947 -644.9 578.941 C -646.99 577.479 -648.07 575.037 -646.64 572.76 C -645.43 570.84 -642.11 569.668 -640 571.14 Z" transform="matrix(-1, 0, 0, -1, 0.000030517578, -0.000030517577)"/>
    <path style="fill: oklch(0.444 0.177 26.899); transform-origin: -640.506134px 615.52475px;" d="M -642.84 653.953 C -643.04 649.933 -643.25 645.914 -643.48 641.896 C -643.59 639.735 -643.71 637.575 -643.84 635.415 C -643.86 635.006 -644.38 632.883 -643.9 634.193 C -644.03 633.823 -644.32 633.087 -644.4 632.907 C -645.61 630.182 -647.4 627.449 -646.37 624.398 C -646.08 623.532 -645.57 622.746 -644.92 622.079 C -644.75 621.891 -644.57 621.724 -644.36 621.582 C -643.25 620.796 -643.04 620.646 -643.75 621.132 C -644.38 623.116 -644.66 623.381 -644.61 621.93 C -644.62 621.64 -644.64 621.35 -644.65 621.06 C -644.72 619.899 -644.79 618.738 -644.86 617.578 C -645.09 613.519 -645.33 609.461 -645.56 605.402 C -645.63 604.224 -645.55 602.836 -645.91 601.913 C -646.45 600.536 -647.3 599.259 -647.67 597.822 C -648.15 595.937 -647.81 594.076 -646.94 592.355 C -646.83 592.138 -646.24 590.834 -646.31 591.274 C -646.32 591.35 -646.43 589.959 -646.45 589.63 C -646.68 585.453 -646.9 581.275 -647.11 577.097 C -647.41 571.285 -637.7 571.298 -637.41 577.097 C -637.2 581.132 -636.99 585.167 -636.77 589.201 C -636.65 591.347 -636.61 593.24 -637.62 595.223 C -637.72 595.423 -638.19 596.485 -638.33 596.482 C -637.91 596.492 -638.69 594.559 -638.01 596.322 C -637.62 597.348 -636.8 598.714 -636.41 599.941 C -635.86 601.677 -635.96 603.61 -635.86 605.402 C -635.62 609.461 -635.39 613.519 -635.15 617.578 C -634.95 621.105 -634.02 625.115 -637.19 627.752 C -639.63 629.786 -636.1 626.821 -637.03 625.999 C -636.77 626.224 -636.63 627.053 -636.5 627.345 C -636.06 628.349 -635.34 629.727 -634.86 630.931 C -633.58 634.128 -633.98 638.109 -633.79 641.468 C -633.57 645.628 -633.35 649.789 -633.13 653.952 C -632.84 659.765 -642.55 659.751 -642.84 653.953 Z" transform="matrix(-1, 0, 0, -1, 0.000061035156, 0.00006103517)"/>
    <path style="fill: oklch(0.444 0.177 26.899); transform-origin: -253.513397px 750.305443px;" d="M -407.13 724.67 C -369.67 740.242 -330.19 751.604 -289.89 758.728 C -249.59 765.852 -208.42 768.609 -167.43 767.012 C -144.4 766.115 -121.46 763.824 -98.756 760.106 C -96.177 759.684 -93.527 760.752 -92.787 763.26 C -92.144 765.441 -93.581 768.392 -96.175 768.817 C -137.58 775.6 -179.78 777.914 -221.76 775.611 C -263.7 773.31 -305.41 766.561 -345.68 755.402 C -368.32 749.132 -390.47 741.434 -412.03 732.472 C -414.42 731.476 -414.99 728.233 -413.77 726.291 C -412.33 723.997 -409.53 723.672 -407.13 724.67 Z" transform="matrix(-1, 0, 0, -1, 0.000091552734, -0.000045776367)"/>
    <path style="fill: oklch(0.444 0.177 26.899); transform-origin: -161.463478px 659.7882px;" d="M -224.58 542.299 C -198.36 566.836 -175.12 594.158 -155.39 623.495 C -135.66 652.841 -119.46 684.258 -107.13 716.92 C -100.21 735.243 -94.559 753.971 -90.189 772.965 C -88.889 778.634 -98.249 781.058 -99.55 775.366 C -107.18 742.149 -118.76 709.714 -134.14 678.907 C -149.57 647.979 -168.66 618.601 -191 591.572 C -203.47 576.489 -217.02 562.177 -231.44 548.687 C -235.85 544.561 -228.99 538.17 -224.58 542.299 Z" transform="matrix(-1, 0, 0, -1, -0.000045776367, -0.000106811523)"/>
    <path style="fill: oklch(0.444 0.177 26.899); transform-origin: -335.493233px 490.24052px;" d="M -439.57 431.712 C -410.04 449.592 -380.06 466.84 -349.49 483.15 C -323.02 497.277 -296.11 510.703 -268.67 523.139 C -254.8 529.427 -240.79 535.454 -226.65 541.186 C -224.24 542.159 -223.69 545.438 -224.91 547.366 C -226.36 549.676 -229.13 549.965 -231.54 548.987 C -257.4 538.508 -282.79 527.037 -307.75 514.825 C -336.49 500.761 -364.69 485.728 -392.44 470.02 C -409.95 460.105 -427.28 449.916 -444.47 439.512 C -449.68 436.355 -444.83 428.529 -439.57 431.712 Z" transform="matrix(-1, 0, 0, -1, -0.000106811524, 0.000038146973)"/>
    <path style="fill: oklch(0.444 0.177 26.899); transform-origin: -393.905037px 512.006401px;" d="M -350.67 589.062 C -372.32 548.625 -396.33 509.262 -422.59 471.264 C -430 460.541 -437.6 449.933 -445.39 439.447 C -446.88 437.439 -445.79 434.432 -443.65 433.266 C -441.24 431.954 -438.5 432.874 -437.01 434.887 C -409.41 472.052 -384.17 510.746 -361.18 550.538 C -354.69 561.767 -348.4 573.091 -342.29 584.503 C -339.51 589.69 -347.88 594.272 -350.67 589.062 Z" transform="matrix(-1, 0, 0, -1, 0.000015258789, 0.000137329101)"/>
    <path style="fill: oklch(0.444 0.177 26.899); transform-origin: -204.528503px 599.208328px;" d="M -318.53 430.606 C -315.27 486.845 -318.8 543.354 -328.88 598.885 C -331.69 614.386 -335.04 629.802 -338.88 645.111 C -339.62 643.411 -340.36 641.711 -341.11 640.01 C -306.37 661.448 -268.64 677.859 -230.02 692.209 C -193.64 705.723 -156.61 717.806 -121.11 733.288 C -100.95 742.081 -81.366 752.02 -62.876 763.584 C -57.716 766.81 -62.566 774.64 -67.776 771.385 C -100.26 751.066 -135.97 736.107 -172.26 722.754 C -209.35 709.109 -246.95 696.608 -283.02 680.675 C -304.79 671.058 -325.92 660.21 -346 647.81 C -347.87 646.659 -348.75 644.752 -348.24 642.709 C -334.67 588.646 -327.56 533.266 -327.07 477.748 C -326.93 462.027 -327.32 446.305 -328.23 430.606 C -328.57 424.796 -318.87 424.814 -318.53 430.606 Z" transform="matrix(-1, 0, 0, -1, 0, -0.000030517578)"/>
    <path style="fill: oklch(0.444 0.177 26.899); transform-origin: -342.606567px 456.550537px;" d="M -338.93 431.378 C -338.35 448.165 -336.6 464.914 -336.57 481.719 C -336.56 487.533 -346.26 487.542 -346.27 481.719 C -346.3 464.914 -348.06 448.165 -348.64 431.378 C -348.84 425.562 -339.13 425.568 -338.93 431.378 Z" transform="matrix(-1, 0, 0, -1, 0, 5e-12)"/>
    <path style="fill: oklch(0.444 0.177 26.899); transform-origin: -121.40831px 592.510315px;" d="M 40.24 720.662 C 38.69 738.89 34.93 756.903 28.8 774.281 C 28.05 776.434 25.39 778.338 22.84 777.436 C -0.41 769.22 -23.22 759.918 -45.91 750.47 C -67.14 741.627 -88.25 732.507 -109.23 723.164 C -151.14 704.501 -192.82 685.142 -233.19 663.704 C -249.42 655.083 -265.69 646.213 -280.67 635.769 C -282.77 634.302 -283.85 631.899 -282.41 629.589 C -265.39 602.289 -249.32 574.485 -234.23 546.216 C -219.2 518.047 -205.13 489.429 -192.11 460.405 C -184.73 443.951 -177.68 427.368 -170.95 410.674 C -170.03 408.392 -167.67 406.831 -164.98 407.519 C -162.63 408.122 -160.67 410.781 -161.59 413.076 C -173.66 442.988 -186.75 472.538 -200.87 501.662 C -214.87 530.561 -229.88 559.037 -245.88 587.025 C -254.95 602.893 -264.34 618.602 -274.03 634.149 C -274.61 632.089 -275.19 630.028 -275.77 627.968 C -262.73 637.059 -248.68 644.908 -234.61 652.516 C -216.01 662.575 -197.04 672.055 -177.95 681.283 C -135.77 701.666 -92.91 720.849 -49.61 739.066 C -24.86 749.479 0.02 759.746 25.42 768.723 C 23.43 769.775 21.44 770.827 19.45 771.878 C 25.3 755.267 29.05 738.088 30.53 720.66 C 30.74 718.228 32.61 716.142 35.38 716.142 C 37.85 716.144 40.44 718.216 40.24 720.662 Z" transform="matrix(-1, 0, 0, -1, -0.000030517578, 0)"/>
    <path style="fill: oklch(0.444 0.177 26.899); transform-origin: -48.518509px 585.650894px;" d="M -33.153 403.165 C -55.003 432.166 -77.633 460.656 -100.98 488.627 C -124.27 516.516 -148.3 543.869 -173.03 570.651 C -186.94 585.708 -201.08 600.582 -215.44 615.273 C -215.76 612.908 -216.09 610.543 -216.42 608.179 C -176.11 632.303 -134.89 655.096 -92.843 676.48 C -50.783 697.864 -7.913 717.85 35.677 736.382 C 59.967 746.711 84.487 756.585 109.207 765.992 C 107.377 766.684 105.547 767.376 103.727 768.068 C 109.207 759.015 113.667 749.533 117.037 739.622 C 118.907 734.099 128.277 736.459 126.387 742.024 C 122.777 752.651 117.987 762.919 112.097 772.628 C 111.147 774.194 108.557 775.439 106.627 774.704 C 61.877 757.675 17.767 739.198 -25.553 719.239 C -68.503 699.456 -110.69 678.243 -152.01 655.654 C -175.4 642.867 -198.5 629.635 -221.32 615.98 C -224.03 614.357 -224.46 611.096 -222.3 608.885 C -196.87 582.858 -172.13 556.255 -148.11 529.095 C -124.36 502.231 -101.3 474.827 -79.003 446.905 C -66.273 430.968 -53.783 414.865 -41.533 398.606 C -40.033 396.611 -37.293 395.681 -34.893 396.985 C -32.773 398.139 -31.633 401.158 -33.153 403.165 Z" transform="matrix(-1, 0, 0, -1, 0, 0.000091552735)"/>
    <path style="fill: oklch(0.444 0.177 26.899); transform-origin: 109.247826px 628.724533px;" d="M 80.032 607.884 C 100.872 619.545 123.502 628.53 143.292 641.787 C 145.412 643.211 146.442 645.72 145.032 647.968 C 143.802 649.922 140.532 651.022 138.392 649.588 C 118.602 636.332 95.972 627.346 75.132 615.685 C 69.782 612.693 74.662 604.878 80.032 607.884 Z" transform="matrix(-1, 0, 0, -1, -0.000015258789, 0.000030517579)"/>
    <path style="fill: oklch(0.444 0.177 26.899); transform-origin: -527.324623px 671.658363px;" d="M -638.04 590.466 C -629.89 596.932 -621.31 602.965 -612.88 609.109 C -596.98 620.7 -581.01 632.215 -565.02 643.704 C -545.99 657.378 -526.92 671.01 -507.81 684.593 C -489.97 697.277 -472.1 709.924 -454.15 722.471 C -441.8 731.1 -429.47 739.76 -416.86 748.058 C -415.94 748.665 -415.02 749.267 -414.09 749.866 C -412.05 751.181 -413.99 754.315 -416.05 752.986 C -427.72 745.461 -439.06 737.476 -450.42 729.559 C -468.01 717.304 -485.51 704.936 -502.99 692.534 C -522.32 678.808 -541.61 665.029 -560.87 651.208 C -577.43 639.326 -593.96 627.415 -610.44 615.439 C -620.12 608.4 -629.88 601.423 -639.35 594.138 C -639.83 593.768 -640.31 593.397 -640.78 593.021 C -642.69 591.511 -639.93 588.966 -638.04 590.466 Z" transform="matrix(-1, 0, 0, -1, -0.000045776367, -0.000076293945)"/>
    <path style="fill: oklch(0.444 0.177 26.899); transform-origin: -528.304619px 681.676666px;" d="M -640.65 598.359 C -632.32 604.964 -623.63 611.185 -615.05 617.506 C -598.96 629.371 -582.82 641.169 -566.65 652.943 C -547.26 667.061 -527.83 681.137 -508.36 695.162 C -490.26 708.203 -472.12 721.205 -453.89 734.095 C -441.44 742.903 -429 751.752 -416.24 760.181 C -415.31 760.795 -414.38 761.406 -413.44 762.01 C -411.4 763.326 -413.34 766.459 -415.4 765.13 C -427.25 757.483 -438.72 749.292 -450.22 741.19 C -468.08 728.611 -485.83 715.904 -503.55 703.161 C -523.1 689.099 -542.6 674.983 -562.08 660.823 C -579.02 648.502 -595.94 636.152 -612.81 623.74 C -622.56 616.563 -632.37 609.438 -641.94 602.049 C -642.43 601.673 -642.91 601.296 -643.39 600.915 C -645.3 599.404 -642.54 596.858 -640.65 598.359 Z" transform="matrix(-1, 0, 0, -1, -0.000015258789, -0.000061035156)"/>
    <path style="fill: oklch(0.444 0.177 26.899); transform-origin: -527.652496px 691.391624px;" d="M -639.34 609.289 C -631.08 615.844 -622.4 621.97 -613.86 628.207 C -597.87 639.891 -581.81 651.503 -565.73 663.089 C -546.52 676.938 -527.26 690.744 -507.97 704.5 C -489.91 717.378 -471.82 730.219 -453.64 742.956 C -441.27 751.626 -428.91 760.331 -416.27 768.661 C -415.33 769.281 -414.38 769.899 -413.44 770.51 C -411.4 771.825 -413.34 774.959 -415.4 773.63 C -427.13 766.061 -438.52 758.012 -449.94 750.037 C -467.68 737.647 -485.32 725.141 -502.94 712.599 C -522.45 698.712 -541.91 684.771 -561.33 670.789 C -578.12 658.709 -594.88 646.602 -611.58 634.427 C -621.3 627.34 -631.1 620.312 -640.62 612.988 C -641.11 612.609 -641.6 612.229 -642.09 611.843 C -643.99 610.334 -641.24 607.788 -639.34 609.289 Z" transform="matrix(-1, 0, 0, -1, 0.000061035156, -0.000045776367)"/>
    <path style="fill: oklch(0.444 0.177 26.899); transform-origin: -527.975739px 700.194901px;" d="M -639.99 617.181 C -631.7 623.759 -623.03 629.951 -614.5 636.243 C -598.41 648.097 -582.26 659.883 -566.1 671.644 C -546.78 685.694 -527.43 699.701 -508.04 713.657 C -490.01 726.634 -471.94 739.572 -453.79 752.4 C -441.37 761.175 -428.96 769.99 -416.24 778.39 C -415.31 779.006 -414.38 779.618 -413.44 780.224 C -411.4 781.54 -413.33 784.673 -415.39 783.344 C -427.22 775.722 -438.65 767.563 -450.12 759.491 C -467.9 746.973 -485.58 734.329 -503.23 721.649 C -522.77 707.606 -542.27 693.507 -561.74 679.366 C -578.56 667.146 -595.35 654.898 -612.1 642.587 C -621.87 635.403 -631.7 628.273 -641.28 620.873 C -641.77 620.497 -642.26 620.119 -642.74 619.736 C -644.64 618.226 -641.88 615.681 -639.99 617.181 Z" transform="matrix(-1, 0, 0, -1, -0.000061035156, -0.000152587891)"/>
    <path style="fill: oklch(0.444 0.177 26.899); transform-origin: -528.629585px 708.390961px;" d="M -641.3 625.074 C -632.95 631.696 -624.21 637.918 -615.61 644.244 C -599.45 656.126 -583.23 667.937 -566.99 679.725 C -547.58 693.814 -528.13 707.861 -508.64 721.855 C -490.41 734.939 -472.16 747.985 -453.82 760.921 C -441.38 769.69 -428.96 778.499 -416.23 786.901 C -415.3 787.513 -414.37 788.122 -413.44 788.724 C -411.4 790.04 -413.34 793.173 -415.4 791.844 C -427.22 784.218 -438.67 776.066 -450.15 767.999 C -468.06 755.416 -485.87 742.707 -503.64 729.964 C -523.27 715.889 -542.86 701.761 -562.41 687.59 C -579.38 675.294 -596.32 662.97 -613.2 650.583 C -623.02 643.377 -632.91 636.225 -642.54 628.799 C -643.05 628.412 -643.55 628.022 -644.04 627.629 C -645.95 626.119 -643.19 623.572 -641.3 625.074 Z" transform="matrix(-1, 0, 0, -1, -0.000106811523, 0.000061035156)"/>
    <path style="fill: oklch(0.444 0.177 26.899); transform-origin: -526.021378px 718.713623px;" d="M -636.73 636.611 C -628.51 643.134 -619.92 649.28 -611.45 655.523 C -595.62 667.201 -579.72 678.81 -563.81 690.395 C -544.8 704.232 -525.75 718.025 -506.66 731.768 C -488.76 744.661 -470.82 757.513 -452.79 770.255 C -440.47 778.959 -428.16 787.702 -415.54 796.031 C -414.63 796.636 -413.71 797.237 -412.79 797.832 C -410.75 799.148 -412.68 802.281 -414.74 800.952 C -426.43 793.414 -437.75 785.349 -449.09 777.366 C -466.75 764.935 -484.3 752.377 -501.82 739.781 C -521.07 725.95 -540.26 712.064 -559.42 698.134 C -576.04 686.054 -592.64 673.944 -609.18 661.772 C -618.83 654.675 -628.53 647.629 -638 640.321 C -638.5 639.938 -638.99 639.554 -639.48 639.166 C -641.38 637.655 -638.63 635.11 -636.73 636.611 Z" transform="matrix(-1, 0, 0, -1, 0.000030517578, 0)"/>
    <path style="fill: oklch(0.444 0.177 26.899); transform-origin: -527.812538px 725.452393px;" d="M -639.02 641.589 C -630.71 648.182 -622.12 654.485 -613.62 660.863 C -597.7 672.819 -581.72 684.718 -565.72 696.593 C -546.61 710.775 -527.46 724.915 -508.27 738.998 C -490.28 752.192 -472.27 765.348 -454.14 778.371 C -441.84 787.207 -429.55 796.094 -416.9 804.492 C -415.96 805.111 -415.03 805.725 -414.09 806.332 C -412.05 807.647 -413.99 810.781 -416.05 809.452 C -427.82 801.857 -439.15 793.626 -450.5 785.503 C -468.18 772.861 -485.73 760.075 -503.24 747.247 C -522.61 733.066 -541.92 718.823 -561.2 704.537 C -577.97 692.109 -594.71 679.652 -611.41 667.14 C -621.07 659.897 -630.78 652.693 -640.31 645.286 C -640.79 644.907 -641.28 644.527 -641.76 644.144 C -643.66 642.633 -640.91 640.087 -639.02 641.589 Z" transform="matrix(-1, 0, 0, -1, -0.000045776367, 0)"/>
    <path style="fill: oklch(0.444 0.177 26.899); transform-origin: -524.864655px 733.633133px;" d="M -634.42 649.45 C -626.13 656.029 -617.55 662.304 -609.07 668.666 C -593.13 680.625 -577.15 692.543 -561.17 704.458 C -542.19 718.607 -523.2 732.744 -504.22 746.881 C -486.54 760.041 -468.87 773.199 -451.2 786.371 C -439.18 795.336 -427.15 804.292 -415.18 813.316 C -414.31 813.971 -413.45 814.627 -412.58 815.284 C -410.64 816.752 -413.4 819.295 -415.32 817.839 C -426.27 809.554 -437.29 801.356 -448.3 793.143 C -465.56 780.263 -482.84 767.399 -500.11 754.534 C -519.17 740.343 -538.23 726.152 -557.29 711.952 C -573.82 699.63 -590.35 687.305 -606.85 674.947 C -616.49 667.718 -626.19 660.538 -635.7 653.152 C -636.19 652.772 -636.68 652.391 -637.17 652.006 C -639.07 650.494 -636.32 647.948 -634.42 649.45 Z" transform="matrix(-1, 0, 0, -1, -0.000061035156, -0.000030517579)"/>
    <path style="fill: oklch(0.444 0.177 26.899); transform-origin: -524.849846px 741.906219px;" d="M -636.76 652.982 C -621.25 663.563 -606.3 674.834 -591.98 686.778 C -577.41 698.928 -562.83 710.901 -547.59 722.321 C -517.99 744.504 -489.11 767.508 -460.03 790.291 C -443.74 803.055 -427.4 815.757 -410.81 828.187 C -408.87 829.646 -411.63 832.188 -413.56 830.742 C -443.04 808.647 -471.78 785.72 -500.73 763.037 C -515 751.86 -529.31 740.732 -543.79 729.797 C -558.83 718.44 -573.73 707.058 -588.07 694.933 C -604.28 681.223 -621.04 668.162 -638.71 656.102 C -640.71 654.742 -638.77 651.605 -636.76 652.982 Z" transform="matrix(-1, 0, 0, -1, -0.000015258789, -0.000061035157)"/>
    <path style="fill: oklch(0.444 0.177 26.899); transform-origin: -252.488495px 761.015043px;" d="M -406.91 740.765 C -389.42 749.023 -370.45 753.908 -351.41 757.935 C -331.34 762.179 -311.12 765.907 -290.81 769.047 C -250.03 775.352 -208.64 778.986 -167.27 777.593 C -143.86 776.804 -120.53 774.364 -97.564 770.047 C -95.125 769.589 -94.081 773.071 -96.532 773.532 C -137.64 781.256 -179.75 782.935 -221.54 780.346 C -263.44 777.749 -304.93 771.096 -345.92 762.769 C -367.5 758.385 -389.07 753.235 -408.86 743.884 C -411.09 742.833 -409.13 739.714 -406.91 740.765 Z" transform="matrix(-1, 0, 0, -1, -0.000061035156, 0.000064849852)"/>
    <path style="fill: oklch(0.444 0.177 26.899); transform-origin: -258.34288px 763.597824px;" d="M -407.36 753.274 C -363.04 759.584 -318.54 766.418 -273.77 769.272 C -243.13 771.224 -212.6 770.026 -182.02 767.711 C -157.58 765.86 -133.18 763.661 -108.75 761.648 C -106.26 761.443 -106.28 765.058 -108.75 765.262 C -147.33 768.443 -185.97 772.617 -224.7 773.748 C -257.37 774.702 -289.83 772.103 -322.21 768.292 C -351 764.904 -379.7 760.843 -408.39 756.759 C -410.85 756.408 -409.81 752.925 -407.36 753.274 Z" transform="matrix(-1, 0, 0, -1, 0.000030517578, 0.000030517578)"/>
    <path style="fill: oklch(0.444 0.177 26.899); transform-origin: -254.763184px 805.931906px;" d="M -406.76 830.001 C -366.48 826.503 -326.34 821.742 -286.43 815.602 C -247.28 809.58 -208.38 802.251 -169.75 793.835 C -147.52 788.992 -125.38 783.789 -103.32 778.309 C -100.9 777.708 -99.87 781.193 -102.29 781.793 C -141.55 791.548 -181.07 800.4 -220.88 807.977 C -259.62 815.35 -298.62 821.498 -337.82 826.366 C -360.74 829.213 -383.73 831.615 -406.76 833.615 C -409.24 833.83 -409.23 830.215 -406.76 830.001 Z" transform="matrix(-1, 0, 0, -1, 0, -0.000041961669)"/>
    <path style="fill: oklch(0.444 0.177 26.899); transform-origin: -259.939285px 794.427515px;" d="M -411.7 810.783 C -396.85 811.145 -381.9 809.94 -367.11 808.807 C -345.1 807.121 -323.12 804.93 -301.19 802.547 C -276.6 799.876 -252.04 796.926 -227.53 793.722 C -205.01 790.778 -182.51 787.636 -160.09 784.091 C -144.2 781.581 -128.25 779.029 -112.61 775.421 C -111.3 775.12 -110 774.809 -108.71 774.483 C -106.3 773.875 -105.27 777.36 -107.68 777.968 C -122.29 781.648 -137.31 784.055 -152.2 786.478 C -174.18 790.052 -196.24 793.185 -218.32 796.128 C -242.79 799.388 -267.29 802.39 -291.83 805.13 C -314.36 807.645 -336.92 809.959 -359.52 811.817 C -375.54 813.134 -391.66 814.448 -407.76 814.443 C -409.07 814.443 -410.39 814.429 -411.7 814.397 C -414.19 814.336 -414.2 810.722 -411.7 810.783 Z" transform="matrix(-1, 0, 0, -1, 0.000030517579, 0.000194549564)"/>
    <path style="fill: oklch(0.444 0.177 26.899); transform-origin: -263.814194px 782.919586px;" d="M -411 787.072 C -373.13 791.635 -334.88 792.69 -296.75 791.181 C -258.4 789.665 -220.22 785.637 -182.26 780.391 C -160.53 777.388 -138.86 773.988 -117.22 770.423 C -114.78 770.021 -113.73 773.503 -116.19 773.908 C -154.51 780.22 -192.96 786.018 -231.64 790.024 C -269.7 793.964 -308.02 796.134 -346.32 795.254 C -367.95 794.757 -389.54 793.272 -411 790.686 C -413.44 790.391 -413.47 786.774 -411 787.072 Z" transform="matrix(-1, 0, 0, -1, -0.000030517581, -0.000061035158)"/>
    <path style="fill: oklch(0.444 0.177 26.899); transform-origin: -258.650131px 771.297255px;" d="M -407.37 764.733 C -387.64 769.269 -367.25 771.198 -347.01 772.488 C -322.81 774.031 -298.51 774.417 -274.25 774.279 C -250.19 774.141 -226.12 773.446 -202.06 772.383 C -182.47 771.516 -162.9 770.402 -143.34 769.044 C -132.53 768.294 -121.72 767.512 -110.94 766.507 C -110.42 766.458 -109.89 766.409 -109.37 766.357 C -106.89 766.11 -106.91 769.725 -109.37 769.971 C -118.8 770.908 -128.26 771.58 -137.72 772.261 C -156.53 773.616 -175.37 774.736 -194.22 775.635 C -218.06 776.772 -241.93 777.554 -265.81 777.821 C -290.36 778.094 -314.93 777.858 -339.44 776.545 C -360.36 775.426 -381.42 773.676 -401.94 769.604 C -404.1 769.174 -406.25 768.712 -408.4 768.218 C -410.82 767.661 -409.8 764.175 -407.37 764.733 Z" transform="matrix(-1, 0, 0, -1, 0.000091552734, -0.000149726862)"/>
    <path style="fill: oklch(0.444 0.177 26.899); transform-origin: 51.475147px 688.089504px;" d="M -32.983 729.263 C 15.827 718.044 59.287 693.467 100.057 666.843 C 111.647 659.273 123.087 651.499 134.517 643.713 C 136.537 642.338 138.477 645.472 136.477 646.833 C 95.887 674.489 54.667 702.404 7.927 720.455 C -5.023 725.458 -18.333 729.617 -31.953 732.747 C -34.373 733.305 -35.413 729.821 -32.983 729.263 Z" transform="matrix(-1, 0, 0, -1, 0.000015258789, -0.000053405761)"/>
    <path style="fill: oklch(0.444 0.177 26.899); transform-origin: 49.747894px 695.793159px;" d="M -33.388 732.286 C 11.932 717.197 55.082 696.665 96.912 674.649 C 108.472 668.566 119.932 662.327 131.322 655.971 C 133.472 654.771 135.422 657.895 133.282 659.091 C 91.632 682.341 48.902 704.247 4.302 722.224 C -7.768 727.088 -19.968 731.647 -32.358 735.771 C -34.708 736.555 -35.728 733.065 -33.388 732.286 Z" transform="matrix(-1, 0, 0, -1, -0.000007629395, -0.000015258789)"/>
    <path style="fill: oklch(0.444 0.177 26.899); transform-origin: 48.995441px 706.765282px;" d="M -36.452 740.523 C 10.318 731.31 52.888 710.328 94.518 689.214 C 107.328 682.72 120.118 676.214 132.918 669.714 C 135.118 668.6 137.078 671.719 134.878 672.834 C 112.748 684.074 90.718 695.511 68.358 706.362 C 47.308 716.573 25.838 726.133 3.478 733.612 C -9.232 737.865 -22.202 741.404 -35.422 744.008 C -37.862 744.488 -38.902 741.005 -36.452 740.523 Z" transform="matrix(-1, 0, 0, -1, 0, -0.000045776366)"/>
    <path style="fill: oklch(0.444 0.177 26.899); transform-origin: 45.48518px 721.606335px;" d="M -46.013 754.674 C -19.413 751.265 5.977 742.692 30.407 732.553 C 53.347 723.029 75.817 712.469 98.347 702.148 C 110.707 696.492 123.057 690.83 135.437 685.234 C 137.677 684.223 139.647 687.338 137.397 688.354 C 115.217 698.378 93.137 708.609 70.967 718.664 C 47.367 729.365 23.697 740.199 -1.173 748.155 C -15.423 752.716 -30.043 756.244 -44.983 758.158 C -47.423 758.471 -48.483 754.989 -46.013 754.674 Z" transform="matrix(-1, 0, 0, -1, 0, 0.00009918213)"/>
    <path style="fill: oklch(0.444 0.177 26.899); transform-origin: 43.348793px 730.333477px;" d="M -51.376 761.149 C -1.526 746.984 47.614 730.672 95.824 712.243 C 109.444 707.037 122.994 701.658 136.454 696.118 C 138.724 695.187 140.694 698.3 138.414 699.238 C 90.594 718.911 41.794 736.532 -7.786 751.972 C -21.906 756.369 -36.096 760.586 -50.336 764.633 C -52.736 765.314 -53.756 761.827 -51.376 761.149 Z" transform="matrix(-1, 0, 0, -1, -0.000007629395, -0.000205993652)"/>
    <path style="fill: oklch(0.444 0.177 26.899); transform-origin: 47.762203px 739.607399px;" d="M -46.919 764.731 C 2.991 753.892 52.271 740.617 100.671 724.937 C 114.351 720.505 127.951 715.879 141.491 711.071 C 143.821 710.241 144.831 713.734 142.521 714.555 C 94.641 731.564 45.821 746.234 -3.719 758.447 C -17.719 761.899 -31.779 765.152 -45.889 768.216 C -48.309 768.744 -49.349 765.261 -46.919 764.731 Z" transform="matrix(-1, 0, 0, -1, 0.000007629395, 0.000045776368)"/>
    <path style="fill: oklch(0.444 0.177 26.899); transform-origin: -504.900009px 484.435501px;" d="M -545.02 484.435 C -517.92 491.13 -512.09 496.556 -504.9 521.786 C -497.71 496.556 -491.88 491.13 -464.78 484.435 C -491.88 477.741 -497.71 472.315 -504.9 447.085 C -512.09 472.315 -517.92 477.742 -545.02 484.435 Z" transform="matrix(-1, 0, 0, -1, -0.000030517578, -0.00003051758)"/>
    <path style="fill: oklch(0.444 0.177 26.899); transform-origin: -565.274994px 451.942993px;" d="M -583.87 451.943 C -571.31 455.046 -568.61 457.562 -565.27 469.258 C -561.94 457.562 -559.24 455.046 -546.68 451.943 C -559.24 448.84 -561.94 446.325 -565.27 434.628 C -568.61 446.325 -571.31 448.84 -583.87 451.943 Z" transform="matrix(-1, 0, 0, -1, -0.000061035156, -1e-12)"/>
    <path style="fill: oklch(0.444 0.177 26.899); transform-origin: -557.423767px 505.836685px;" d="M -564.99 504.884 L -558.66 504.884 L -558.66 498.99 C -558.66 497.246 -555.75 497.244 -555.75 498.99 L -555.75 504.884 L -549.85 504.884 C -547.98 504.884 -547.98 507.594 -549.85 507.594 L -555.75 507.594 L -555.75 512.683 C -555.75 514.427 -558.66 514.43 -558.66 512.683 L -558.66 507.594 L -564.99 507.594 C -566.87 507.594 -566.87 504.884 -564.99 504.884 Z" transform="matrix(-1, 0, 0, -1, 0, -0.000030517578)"/>
    <path style="fill: oklch(0.444 0.177 26.899); transform-origin: -523.848128px 408.797684px;" d="M -531.42 407.845 L -525.09 407.845 L -525.09 401.951 C -525.09 400.207 -522.18 400.205 -522.18 401.951 L -522.18 407.845 L -516.28 407.845 C -514.4 407.845 -514.4 410.555 -516.28 410.555 L -522.18 410.555 L -522.18 415.644 C -522.18 417.388 -525.09 417.391 -525.09 415.644 L -525.09 410.555 L -531.42 410.555 C -533.29 410.555 -533.3 407.845 -531.42 407.845 Z" transform="matrix(-1, 0, 0, -1, 0.000089645386, -0.000030517527)"/>
    <path style="fill: oklch(0.444 0.177 26.899); transform-origin: -201.561745px 382.495468px;" d="M -179.33 376.482 C -185.46 387.256 -199.34 393.168 -212.15 391.615 C -215.94 391.155 -219.57 390.083 -222.92 388.335 C -225.6 386.937 -223.2 383.098 -220.51 384.5 C -210.8 389.573 -197.8 387.839 -189.39 381.12 C -186.95 379.171 -184.96 376.884 -183.46 374.24 C -182.02 371.712 -177.9 373.954 -179.33 376.482 Z" transform="matrix(-1, 0, 0, -1, 0.000015258789, 0.000030517579)"/>
    <path style="fill: oklch(0.444 0.177 26.899); transform-origin: 149.011917px 564.255585px;" d="M 156.59 541.143 C 147.29 550.786 143.61 564.758 146.45 577.391 C 147.27 581.049 148.6 584.571 150.49 587.87 C 151.93 590.392 147.81 592.639 146.37 590.111 C 138.99 577.194 139.06 561.293 145.85 548.179 C 147.77 544.477 150.27 541.058 153.22 538.001 C 155.28 535.87 158.64 539.02 156.59 541.143 Z" transform="matrix(-1, 0, 0, -1, 0, -0.000061035164)"/>
    <path style="fill: oklch(0.444 0.177 26.899); transform-origin: -460.463974px 427.373474px;" d="M -468.02 442.5 C -469.19 443.005 -470.59 442.806 -471.29 441.703 C -471.89 440.742 -471.6 439.172 -470.43 438.664 C -460.38 434.315 -453.76 424.464 -454.13 414.127 C -454.23 411.268 -449.45 411.271 -449.35 414.127 C -448.94 425.888 -456.54 437.531 -468.02 442.5 Z" transform="matrix(-1, 0, 0, -1, 0.000030517578, 1.7e-11)"/>
</svg>